<svg version="1.1" xmlns="http://www.w3.org/2000/svg" viewBox="0 0 256 256">
<g><g><g><path fill="#ffffff" d="M117.5,11.5c-1.3,0.2-5.5,0.8-9.4,1.4c-22.6,3.3-46.7,15.7-63.8,32.8C-0.4,90.5-1.6,161.9,41.8,207.7c17.9,19,40.5,31.2,66.1,35.6c17.3,3,41.2,1.3,57.5-4.2c61.9-20.7,95.1-86.7,74.5-148.1c-15.4-46.2-58.8-78.1-108.3-79.5C125.1,11.2,118.8,11.2,117.5,11.5z M146.2,28c20.4,3.4,43.5,16,57.3,31.1c23.6,25.9,32.6,61,23.8,95c-2.4,9.5-10.6,26.3-16.7,34.3c-14.7,19.3-33.8,32-58.2,38.7c-6.1,1.7-9.9,2-24.1,2c-15.4,0.1-17.7-0.2-26.1-2.4c-10.4-2.8-23.9-8.9-32.7-14.7c-7.8-5.3-21.9-19.4-26.9-27.2c-10.8-16.4-16-32.2-16.8-51.2c-0.7-14.5,0.6-24.7,4.4-36.2C46.5,48.2,94.9,19.4,146.2,28z"/><path fill="#ffffff" d="M171.1,76.3c-7.6,6.4-4.5,19.6,5.1,21.4c3.7,0.8,8.5-1,11.2-4c2.4-2.7,3.1-10.2,1.1-14C185.4,73.6,176.4,71.9,171.1,76.3z"/><path fill="#ffffff" d="M83.9,129.9c-7.9,28.8-14.3,52.9-14.3,53.6c0,0.9,2.5,1.1,11,0.9l11-0.3l3.3-13.4l3.3-13.3H112h13.7l3.7,13.6l3.6,13.6h11.5c9.1,0,11.5-0.3,11.5-1.2c0-0.8-6.6-24.7-14.5-53.2c-8-28.5-14.5-52-14.5-52.2c0-0.2-6.5-0.4-14.4-0.4H98.2L83.9,129.9z M116.6,116.5c2.5,10.3,5,19.5,5.3,20.4c0.5,1.6-0.4,1.7-9.8,1.7h-10.3l3-12c1.7-6.6,3.8-15.9,4.8-20.6c0.9-4.8,1.9-8.5,2-8.4C111.7,97.7,114,106.2,116.6,116.5z"/><path fill="#ffffff" d="M167.9,107.3c-0.4,0.3-0.7,17.8-0.7,38.9v38.3h10.8h10.8v-38.9v-38.9h-10.1C173.1,106.7,168.2,107,167.9,107.3z"/></g></g></g>
</svg>
